<svg width="10" height="20" viewBox="0 0 10 20" fill="none" xmlns="http://www.w3.org/2000/svg">
<path d="M8.63369 0C8.82138 0.0834173 9.02471 0.0364951 9.21761 0.0677765C9.41573 0.099058 9.61906 0.109485 9.81717 0.114699C9.95272 0.119912 10.0049 0.156407 9.99965 0.307601C9.98922 1.25647 9.99443 2.20534 9.99965 3.15422C9.99965 3.27413 9.97358 3.32105 9.84324 3.31584C9.31667 3.30541 8.7901 3.31062 8.26353 3.31062C8.07584 3.31062 7.88815 3.32105 7.70046 3.34191C6.96013 3.43575 6.53783 3.86326 6.49091 4.60881C6.43356 5.53161 6.48048 6.45441 6.46484 7.37722C6.46484 7.52841 6.5639 7.48149 6.63689 7.48149C7.58576 7.48149 8.53463 7.4867 9.4835 7.47627C9.65555 7.47627 9.69726 7.50756 9.67119 7.68482C9.53043 8.74839 9.39487 9.81196 9.26975 10.8755C9.25411 11.0163 9.20197 11.0372 9.07684 11.0319C8.26352 11.0267 7.45021 11.0319 6.63689 11.0267C6.48569 11.0267 6.45963 11.0632 6.45963 11.2092C6.46484 14.0558 6.45963 16.9024 6.47005 19.7543C6.47005 19.9419 6.4127 19.9732 6.24587 19.9732C5.20315 19.968 4.16565 19.968 3.12293 19.9732C2.95089 19.9732 2.89875 19.9419 2.89875 19.7543C2.90396 16.9181 2.90396 14.0871 2.90918 11.2509C2.90918 11.0789 2.86747 11.0267 2.69021 11.0319C1.85082 11.0424 1.01143 11.0319 0.172048 11.0424C0.0364951 11.0424 0 11.0111 0 10.8755C0.00521358 9.80153 0.00521358 8.73275 0 7.65875C0 7.5232 0.0312815 7.4867 0.166835 7.4867C1.01665 7.49192 1.87168 7.4867 2.72149 7.49192C2.86226 7.49192 2.90396 7.46063 2.90396 7.31465C2.90918 6.25108 2.85183 5.1823 2.93003 4.11873C3.01866 2.89354 3.42011 1.79869 4.38462 0.97494C4.96854 0.474436 5.65152 0.20333 6.40228 0.0782037C6.49091 0.062563 6.59518 0.0782037 6.66817 0.00521358C7.17389 0.00521358 7.68482 0.00521358 8.19053 0.00521358C8.2531 0.0573494 8.32087 0.0729901 8.38344 0.00521358C8.47728 0 8.55548 0 8.63369 0Z" fill="white"/>
</svg>
