<svg width="18" height="18" viewBox="0 0 18 18" fill="none" xmlns="http://www.w3.org/2000/svg">
<path d="M16.6199 17.4616C16.3852 17.3545 16.2163 17.1733 16.0392 16.9962C14.9972 15.9542 13.9551 14.9121 12.9172 13.866C12.8184 13.7672 12.7607 13.7548 12.6495 13.8454C11.521 14.7433 10.236 15.2746 8.80269 15.4146C5.19473 15.7647 1.93274 13.5324 0.923667 10.0521C-0.241917 6.02408 2.29107 1.74479 6.38091 0.826324C10.0506 0.00259185 13.7245 1.95484 14.9972 5.48453C15.9239 8.04634 15.512 10.4475 13.8687 12.6222C13.7739 12.7499 13.778 12.8075 13.8892 12.9187C14.9601 13.9772 16.0227 15.0481 17.0895 16.1107C17.246 16.2672 17.3984 16.4278 17.4725 16.642C17.4725 16.7408 17.4725 16.8397 17.4725 16.9385C17.3695 17.2021 17.1883 17.3833 16.9124 17.4657C16.8176 17.4616 16.7188 17.4616 16.6199 17.4616ZM2.01512 8.04634C2.02747 11.3825 4.73344 14.0843 8.05721 14.0802C11.3851 14.0761 14.0911 11.3701 14.0952 8.04222C14.0993 4.71434 11.3563 1.97955 8.04485 2.00426C4.70049 2.02897 2.00276 4.73082 2.01512 8.04634Z" fill="white"/>
</svg>
