<svg width="15" height="15" viewBox="0 0 15 15" fill="none" xmlns="http://www.w3.org/2000/svg">
<path d="M10.9167 9.66667H10.2584L10.025 9.44167C11.025 8.275 11.5417 6.68334 11.2584 4.99167C10.8667 2.675 8.93337 0.825003 6.60003 0.541669C3.07503 0.108336 0.108366 3.075 0.5417 6.6C0.825033 8.93334 2.67503 10.8667 4.9917 11.2583C6.68337 11.5417 8.27503 11.025 9.4417 10.025L9.6667 10.2583V10.9167L13.2084 14.4583C13.55 14.8 14.1084 14.8 14.45 14.4583C14.7917 14.1167 14.7917 13.5583 14.45 13.2167L10.9167 9.66667ZM5.9167 9.66667C3.8417 9.66667 2.1667 7.99167 2.1667 5.91667C2.1667 3.84167 3.8417 2.16667 5.9167 2.16667C7.9917 2.16667 9.6667 3.84167 9.6667 5.91667C9.6667 7.99167 7.9917 9.66667 5.9167 9.66667Z" fill="black"/>
</svg>
