<svg width="18" height="18" viewBox="0 0 18 18" fill="none" xmlns="http://www.w3.org/2000/svg">
<path d="M17.0883 17.9886C16.8373 17.8741 16.6567 17.6804 16.4674 17.491C15.3531 16.3767 14.2389 15.2625 13.129 14.1439C13.0233 14.0382 12.9617 14.0249 12.8428 14.1218C11.636 15.0819 10.262 15.6501 8.72932 15.7998C4.8713 16.1742 1.38324 13.7871 0.304225 10.0656C-0.942142 5.75842 1.76639 1.18255 6.13969 0.20043C10.0638 -0.680393 13.9922 1.40716 15.3531 5.18148C16.344 7.92084 15.9036 10.4884 14.1464 12.8138C14.0451 12.9503 14.0495 13.012 14.1684 13.1309C15.3135 14.2628 16.4497 15.4078 17.5904 16.5441C17.7578 16.7115 17.9207 16.8832 18 17.1122C18 17.2179 18 17.3236 18 17.4293C17.8899 17.7112 17.6961 17.905 17.401 17.993C17.2997 17.9886 17.194 17.9886 17.0883 17.9886ZM1.47132 7.92084C1.48453 11.4882 4.37804 14.3773 7.93217 14.3729C11.4907 14.3685 14.3842 11.475 14.3886 7.91644C14.393 4.35791 11.4599 1.43358 7.91896 1.46001C4.34281 1.48643 1.45811 4.37553 1.47132 7.92084Z" fill="#FF5757"/>
</svg>
