<svg width="20" height="17" viewBox="0 0 20 17" fill="none" xmlns="http://www.w3.org/2000/svg">
<path d="M0 14.4898C2.2091 14.6916 4.20664 14.1504 6.0123 12.7924C4.12792 12.6251 2.87331 11.6707 2.16974 9.9142C2.80443 10.0028 3.38499 10.0028 4.00984 9.84039C3.02583 9.60423 2.24846 9.12699 1.64822 8.37422C1.04305 7.62145 0.742927 6.75552 0.742927 5.75183C1.31857 6.04212 1.89914 6.22908 2.58303 6.24384C1.68758 5.59439 1.11193 4.77275 0.880689 3.72969C0.644526 2.68664 0.811808 1.69771 1.33333 0.757985C1.5695 1.01875 1.7909 1.27459 2.02706 1.51567C3.8032 3.32625 5.93358 4.45786 8.42804 4.90067C8.84133 4.97447 9.25953 5.00891 9.67282 5.04827C9.7909 5.05811 9.83026 5.05319 9.80566 4.91051C9.59902 3.67557 9.83518 2.53412 10.6322 1.55503C11.6359 0.329941 12.9447 -0.176824 14.5141 0.0544179C15.3801 0.182339 16.123 0.571023 16.7429 1.19095C16.8266 1.27459 16.9004 1.28935 17.0184 1.26475C17.8155 1.08763 18.5683 0.807185 19.2817 0.408661C19.326 0.384061 19.3752 0.364381 19.4637 0.320101C19.139 1.28443 18.5633 1.99784 17.7122 2.54888C17.9336 2.5538 18.1156 2.5046 18.3026 2.47016C18.4895 2.43572 18.6716 2.39144 18.8536 2.34224C19.0406 2.29304 19.2276 2.22416 19.4145 2.17004C19.5916 2.12084 19.754 2.00768 20 1.98308C19.8327 2.2094 19.6999 2.40128 19.5474 2.58332C19.1193 3.10485 18.6371 3.57717 18.091 3.9757C18.0123 4.03474 17.9729 4.09378 17.9779 4.20202C18.0517 6.34224 17.5498 8.34962 16.5412 10.2291C15.4588 12.2561 13.9237 13.8552 11.8967 14.9572C10.6667 15.6264 9.35301 16.0298 7.96556 16.2168C6.83395 16.3693 5.70726 16.3693 4.58057 16.2119C2.94219 15.9757 1.42189 15.4197 0.0246002 14.5341C0.0147601 14.5243 0.0147601 14.5095 0 14.4898Z" fill="white"/>
</svg>
